<svg width="452" height="438" xmlns="http://www.w3.org/2000/svg" xmlns:xlink="http://www.w3.org/1999/xlink" xml:space="preserve" overflow="hidden"><defs><clipPath id="clip0"><rect x="1623" y="1072" width="452" height="438"/></clipPath><clipPath id="clip1"><rect x="1840" y="1250" width="201" height="220"/></clipPath><clipPath id="clip2"><rect x="1840" y="1250" width="201" height="220"/></clipPath><clipPath id="clip3"><rect x="1840" y="1250" width="201" height="220"/></clipPath><clipPath id="clip4"><rect x="1633" y="1082" width="308" height="337"/></clipPath><clipPath id="clip5"><rect x="1633" y="1082" width="308" height="337"/></clipPath><clipPath id="clip6"><rect x="1633" y="1082" width="308" height="337"/></clipPath></defs><g clip-path="url(#clip0)" transform="translate(-1623 -1072)"><path d="M1623 1145C1663.32 1145 1696 1112.32 1696 1072L2002 1072C2002 1112.32 2034.68 1145 2075 1145L2075 1437C2034.68 1437 2002 1469.68 2002 1510L1696 1510C1696 1469.68 1663.32 1437 1623 1437Z" fill="#2A289D" fill-rule="evenodd"/><g clip-path="url(#clip1)"><g clip-path="url(#clip2)"><g clip-path="url(#clip3)"><path d="M34.375 172.5C32.9167 173.958 31.0417 174.375 29.1667 173.542 27.2917 172.708 26.25 171.042 26.25 169.167 26.25 167.292 27.5 165.417 29.1667 164.792 31.0417 163.958 32.9167 164.375 34.375 165.833 36.25 167.5 36.25 170.625 34.375 172.5ZM181.458 35.2083 164.583 52.0834 151.25 48.5417 147.917 35.4167 164.792 18.5417C154.792 14.7917 143.542 17.0833 135.625 24.1667 127.708 31.4583 124.583 42.2917 127.292 52.7083L21.0417 158.958C17.2917 162.5 15.8333 167.917 17.0833 172.917 18.3333 177.917 22.2917 181.875 27.2917 183.125 32.2917 184.375 37.5 182.917 41.25 179.167L147.5 72.9167C157.917 75.625 168.75 72.5 176.042 64.5834 183.125 56.6667 185.417 45.2083 181.458 35.2083Z" fill="#FFFFFF" transform="matrix(1 0 0 1.095 1840 1251)"/><path d="M180.625 158.958 126.875 105.208 105.208 126.875 157.292 178.958 159.167 180.833 159.375 180.625C165.417 185 173.75 184.167 178.958 178.958 184.167 173.542 184.792 165.208 180.625 158.958L180.625 158.958Z" fill="#FFFFFF" transform="matrix(1 0 0 1.095 1840 1251)"/><path d="M47.0833 41.25 47.2917 41.0417 41.875 31.0417 23.9583 16.6667 16.6667 23.9583 31.0417 41.875 41.0417 47.2917 41.25 47.0833 81.0417 86.875 86.875 81.0417Z" fill="#FFFFFF" transform="matrix(1 0 0 1.095 1840 1251)"/></g></g></g><g clip-path="url(#clip4)"><g clip-path="url(#clip5)"><g clip-path="url(#clip6)"><path d="M238.245 122.835C240.512 118.891 242.336 114.709 243.681 110.363L257.752 103.328 257.752 87.3383 243.681 80.3029C242.505 75.9476 240.786 71.7574 238.565 67.831L243.681 52.8008 232.169 41.2883 217.139 46.405C213.214 44.1709 209.024 42.4402 204.667 41.2531L197.631 27.1823 181.642 27.1823 174.606 41.2531C170.251 42.4284 166.06 44.1472 162.134 46.3698L147.104 41.2531 135.592 52.7656 140.708 67.7958C138.487 71.7222 136.768 75.9125 135.592 80.2677L121.521 87.3031 121.521 103.293 135.592 110.328C136.768 114.683 138.487 118.873 140.708 122.8L135.592 137.83 146.784 149.023 161.815 143.906C165.741 146.128 169.931 147.847 174.286 149.023L181.322 163.094 197.311 163.094 204.347 149.023C208.702 147.847 212.892 146.128 216.819 143.906L231.849 149.023 243.361 137.83ZM232.188 124.895 236.006 136.103 230.202 141.748 218.881 137.891 216.118 136.951 213.595 138.422C210.132 140.379 206.434 141.889 202.591 142.915L199.886 143.689 198.626 146.206 193.359 156.759 185.284 156.759 180.017 146.206 178.757 143.689 176.052 142.915C172.207 141.889 168.509 140.379 165.044 138.422L162.524 136.951 159.762 137.891 148.498 141.728 142.934 136.164 146.772 124.898 147.712 122.135 146.241 119.615C144.288 116.149 142.783 112.449 141.764 108.604L140.99 105.899 138.476 104.642 127.917 99.3689 127.917 91.2813 138.47 86.0239 140.983 84.764 141.757 82.0585C142.778 78.2146 144.282 74.5163 146.234 71.0513L147.705 68.5282 146.765 65.7683 142.928 54.4989 148.812 48.6147 160.075 52.4522 162.838 53.4116 165.358 51.9374C168.823 49.9857 172.522 48.4814 176.365 47.4603L179.083 46.6416 180.343 44.1249 185.61 33.5717 193.695 33.5717 198.962 44.1249 200.222 46.6416 202.924 47.4155C206.768 48.436 210.466 49.9403 213.931 51.8926L216.454 53.3668 219.217 52.4075 230.477 48.57 236.361 54.4541 232.524 65.7236 231.583 68.4834 233.055 71.0065C235.011 74.4712 236.521 78.1699 237.548 82.0138L238.318 84.7192 240.835 85.9792 251.388 91.2493 251.388 99.3369 240.835 104.607 238.389 105.832 237.583 108.448C236.38 112.333 234.754 116.073 232.732 119.602L231.261 122.122Z" fill="#FFFFFF" transform="matrix(1 0 0 1.09772 1633 1082)"/><path d="M49.2479 203.445 49.2479 219.435 63.3187 226.47C64.4949 230.825 66.2138 235.015 68.4354 238.942L63.6385 253.972 74.8312 265.165 89.8615 260.368C93.7875 262.59 97.9778 264.309 102.333 265.485L109.369 279.555 125.358 279.555 132.394 265.485C136.749 264.309 140.939 262.59 144.866 260.368L159.896 265.485 171.089 253.972 166.292 239.262C168.513 235.335 170.232 231.145 171.408 226.79L185.479 219.754 185.479 203.765 171.408 196.729C170.232 192.374 168.513 188.184 166.292 184.258L171.408 169.227 159.896 157.715 144.866 162.831C140.913 160.665 136.729 158.948 132.394 157.715L125.358 143.644 109.369 143.644 102.333 157.715C97.9778 158.89 93.7875 160.609 89.8615 162.831L74.8312 157.715 63.6385 168.908 68.4354 183.938C66.2688 187.891 64.5525 192.074 63.3187 196.41ZM68.6273 200.887 69.4332 198.271C70.5336 194.407 72.0519 190.674 73.9614 187.139L75.3941 184.68 74.5274 181.971 70.917 170.647 76.5389 165.022 87.802 168.86 90.565 169.803 93.0849 168.332C96.5486 166.374 100.247 164.863 104.092 163.839L106.81 163.094 108.07 160.577 113.337 150.024 121.422 150.024 126.689 160.577 127.913 163.027 130.529 163.829C134.392 164.932 138.123 166.452 141.658 168.361L144.181 169.832 146.944 168.888 158.204 165.051 164.088 170.938 160.251 182.204 159.311 184.964 160.782 187.487C162.739 190.953 164.248 194.652 165.275 198.498L166.045 201.2 168.562 202.46 179.083 207.717 179.083 215.805 168.53 221.075 166.013 222.335 165.243 225.037C164.217 228.883 162.707 232.582 160.75 236.048L159.304 238.526 160.193 241.254 163.794 252.296 158.137 258.142 146.944 254.327 144.181 253.387 141.658 254.858C138.192 256.818 134.49 258.328 130.641 259.351L127.936 260.125 126.679 262.642 121.412 273.195 113.328 273.195 108.061 262.642 106.801 260.125 104.095 259.351C100.251 258.326 96.5518 256.816 93.0881 254.858L90.6321 253.425 87.9203 254.289 76.6029 257.902 70.9202 252.22 74.5306 240.896 75.3973 238.187 73.9646 235.728C72.0065 232.264 70.4968 228.565 69.4715 224.721L68.6976 222.015 66.1841 220.755 55.631 215.485 55.631 207.398 66.1841 202.128Z" fill="#FFFFFF" transform="matrix(1 0 0 1.09772 1633 1082)"/><path d="M189.636 71.3327C176.39 71.3327 165.652 82.071 165.652 95.3171 165.652 108.563 176.39 119.301 189.636 119.301 202.883 119.301 213.621 108.563 213.621 95.3171 213.522 82.1123 202.841 71.4319 189.636 71.3327ZM189.636 112.906C179.929 112.892 172.062 105.025 172.048 95.3171 172.177 85.6571 179.976 77.8577 189.636 77.7286 199.344 77.7426 207.211 85.6092 207.225 95.3171 207.104 104.983 199.302 112.791 189.636 112.918Z" fill="#FFFFFF" transform="matrix(1 0 0 1.09772 1633 1082)"/><path d="M117.364 235.754C130.61 235.754 141.348 225.015 141.348 211.769 141.348 198.523 130.61 187.785 117.364 187.785 104.117 187.785 93.3792 198.523 93.3792 211.769 93.3632 225 104.076 235.738 117.306 235.754 117.325 235.754 117.344 235.754 117.364 235.754ZM117.364 194.165C127.078 194.165 134.952 202.039 134.952 211.753 134.952 221.467 127.078 229.342 117.364 229.342 107.65 229.342 99.775 221.467 99.775 211.753 99.7891 202.045 107.656 194.179 117.364 194.165Z" fill="#FFFFFF" transform="matrix(1 0 0 1.09772 1633 1082)"/></g></g></g></g></svg>